<?xml version="1.0" encoding="UTF-8" standalone="no"?>
<!-- Created with Inkscape (http://www.inkscape.org/) -->

<svg
   width="100mm"
   height="100mm"
   viewBox="0 0 100 100"
   version="1.1"
   id="svg5"
   inkscape:version="1.1 (c68e22c387, 2021-05-23)"
   sodipodi:docname="Logo3.svg"
   xmlns:inkscape="http://www.inkscape.org/namespaces/inkscape"
   xmlns:sodipodi="http://sodipodi.sourceforge.net/DTD/sodipodi-0.dtd"
   xmlns="http://www.w3.org/2000/svg"
   xmlns:svg="http://www.w3.org/2000/svg">
  <sodipodi:namedview
     id="namedview7"
     pagecolor="#ffffff"
     bordercolor="#666666"
     borderopacity="1.0"
     inkscape:pageshadow="2"
     inkscape:pageopacity="0.0"
     inkscape:pagecheckerboard="0"
     inkscape:document-units="mm"
     showgrid="false"
     inkscape:zoom="0.77771465"
     inkscape:cx="265.52155"
     inkscape:cy="468.6809"
     inkscape:window-width="1720"
     inkscape:window-height="1369"
     inkscape:window-x="1712"
     inkscape:window-y="0"
     inkscape:window-maximized="0"
     inkscape:current-layer="layer2"
     width="200mm" />
  <defs
     id="defs2" />
  <g
     inkscape:groupmode="layer"
     id="layer3"
     inkscape:label="Dingo">
    <path
       style="display:inline;fill:#373b3f;fill-opacity:1;stroke-width:0.254758"
       d="m 30.275099,83.596908 c 0.253781,-0.735622 0.814465,-2.165712 1.245959,-3.178 1.100832,-2.582528 1.335923,-4.177623 1.151623,-7.813942 -0.153557,-3.029897 -0.136571,-3.177629 0.533043,-4.635094 0.969938,-2.111173 1.03799,-3.288074 0.427618,-7.395632 -0.424113,-2.85408 -0.481607,-3.876514 -0.278308,-4.94852 0.428105,-2.257411 1.949037,-4.319403 3.185985,-4.319403 1.429412,0 2.847323,1.780485 3.711286,4.66031 0.704752,2.349079 0.924518,2.566865 2.555534,2.532447 2.331351,-0.04914 4.403727,-0.346286 4.984457,-0.714568 0.305313,-0.193619 1.274436,-1.402281 2.153618,-2.685909 1.715038,-2.504023 3.766482,-4.377553 4.654411,-4.250737 1.035544,0.147891 1.55339,1.786977 1.55339,4.916718 0,2.716895 -0.03018,2.867699 -0.98863,4.94619 -1.087288,2.357805 -1.04911,1.766633 -0.51971,8.046479 0.160048,1.898512 -0.01504,2.63371 -1.615724,6.782761 -0.412125,1.068299 -0.828698,2.438703 -0.925704,3.045337 -0.23599,1.475797 -0.993819,2.63945 -2.043258,3.13744 -1.803073,0.855618 -5.869759,0.375377 -8.785738,-1.037525 -1.491343,-0.722617 -4.618436,-3.534474 -5.755593,-5.175392 -0.69844,-1.007851 -1.219992,-1.266769 -1.532655,-0.760879 -0.437107,0.707261 4.110767,5.441903 6.424221,6.688042 3.054667,1.645387 8.035693,2.222295 10.188654,1.180068 1.177166,-0.569865 2.344536,-2.179997 2.399626,-3.309773 0.03961,-0.811531 0.387535,1.287695 0.613952,3.703863 l 0.180223,1.923198 H 41.803525 29.813687 Z m 20.395338,-3.712981 c 0.947773,-0.704868 1.043699,-2.596751 0.17569,-3.46477 -1.188826,-1.188826 -3.800477,-1.175249 -4.744321,0.02468 -0.654072,0.831515 -0.660617,1.761402 -0.0198,2.812397 0.830456,1.361995 3.17064,1.682145 4.588424,0.627708 z"
       id="path58018-7" />
  </g>
  <g
     inkscape:groupmode="layer"
     id="layer2"
     inkscape:label="D">
    <path
       style="fill:#1cc29f;fill-opacity:1;stroke-width:0.360283"
       d="M 3.3476417,85.158696 C 25.173255,51.713433 51.571116,11.55507 51.767224,11.499263 51.905891,11.459793 62.152298,28.454296 74.53701,49.264817 86.921722,70.075325 97.354304,87.576813 97.720534,88.156992 l 0.66587,1.054882 H 49.544527 0.70263203 Z M 78.921902,83.717571 C 78.527103,83.073565 71.20072,70.792435 62.641075,56.426174 54.081409,42.059914 46.958091,30.176406 46.811471,30.01838 46.617619,29.809457 20.898161,68.463763 10.961726,83.897709 l -0.637874,0.99078 h 34.657937 34.657943 z"
       id="path59919" />
  </g>
</svg>
